<svg xmlns="http://www.w3.org/2000/svg" xmlns:xlink="http://www.w3.org/1999/xlink" width="212.626" height="38.626" viewBox="0 0 212.626 38.626">
  <defs>
    <clipPath id="clip-path">
      <path id="Path_21274" data-name="Path 21274" d="M26.54,3.184V15.308L.71,8.2,23.449.869A2.416,2.416,0,0,1,26.54,3.184" transform="translate(-0.71 -0.77)"/>
    </clipPath>
    <clipPath id="clip-path-2">
      <path id="Path_21275" data-name="Path 21275" d="M26.54,60.44V71.527L.71,64.542l25.83-4.1" transform="translate(-0.71 -60.44)"/>
    </clipPath>
    <clipPath id="clip-path-3">
      <path id="Path_21276" data-name="Path 21276" d="M26.54,129.11v7.262L.71,129.387l25.83-.277" transform="translate(-0.71 -129.11)"/>
    </clipPath>
    <clipPath id="clip-path-4">
      <path id="Path_21277" data-name="Path 21277" d="M26.54,138.283v2.909L.71,134.08l25.83,4.2" transform="translate(-0.71 -134.08)"/>
    </clipPath>
    <clipPath id="clip-path-5">
      <path id="Path_21278" data-name="Path 21278" d="M207.09,447.438v-12l25.83,6.986-22.739,7.327a2.415,2.415,0,0,1-3.091-2.315" transform="translate(-207.09 -435.44)"/>
    </clipPath>
    <clipPath id="clip-path-6">
      <path id="Path_21279" data-name="Path 21279" d="M207.09,446.528V435.44l25.83,6.986-25.83,4.1" transform="translate(-207.09 -435.44)"/>
    </clipPath>
    <clipPath id="clip-path-7">
      <path id="Path_21280" data-name="Path 21280" d="M207.09,442.7V435.44l25.83,6.986-25.83.276" transform="translate(-207.09 -435.44)"/>
    </clipPath>
    <clipPath id="clip-path-8">
      <path id="Path_21281" data-name="Path 21281" d="M207.09,438.222V435.44l25.83,6.986-25.83-4.2" transform="translate(-207.09 -435.44)"/>
    </clipPath>
    <clipPath id="clip-path-9">
      <path id="Path_21282" data-name="Path 21282" d="M.71,134.08l33.539,9.235a5.116,5.116,0,0,1,3.777,4.933l.011,9.606L4.509,148.734a5.117,5.117,0,0,1-3.772-4.722L.71,134.08" transform="translate(-0.71 -134.08)"/>
    </clipPath>
    <clipPath id="clip-path-10">
      <path id="Path_21283" data-name="Path 21283" d="M.71,134.08l13.4,3.691c0,5.467,16.347,9.032,23.915,11.06l.009,9.023L4.509,148.734a5.117,5.117,0,0,1-3.772-4.722L.71,134.08" transform="translate(-0.71 -134.08)"/>
    </clipPath>
    <clipPath id="clip-path-11">
      <path id="Path_21284" data-name="Path 21284" d="M.71,134.08,7,135.811c-1.632,10.6,21.36,14,31.032,17.089l.006,4.953L4.509,148.734a5.117,5.117,0,0,1-3.772-4.722L.71,134.08" transform="translate(-0.71 -134.08)"/>
    </clipPath>
    <clipPath id="clip-path-12">
      <path id="Path_21285" data-name="Path 21285" d="M38.037,157.854,4.509,148.734a5.117,5.117,0,0,1-3.772-4.722L.71,134.08l1.373.373c-.109,5.158-.474,10.728,3.736,12.757,5.389,2.6,26.043,8.989,32.218,10.644" transform="translate(-0.71 -134.08)"/>
    </clipPath>
  </defs>
  <g id="LOGO" transform="translate(7.436 -4)">
    <g id="Group_3533" data-name="Group 3533" transform="translate(44 2.634)">
      <path id="Path_21272" data-name="Path 21272" d="M5.184,17.18A4.213,4.213,0,0,0,9.72,13.094c0-2.52-2.016-3.312-3.8-3.888C4.482,8.72,3.24,8.414,3.24,7.352c0-.846.63-1.494,1.836-1.494a2.675,2.675,0,0,1,2.376,1.26l2.016-1.53A5.645,5.645,0,0,0,5.058,3.68C2.538,3.68.7,5.336.7,7.442c0,2.5,1.944,3.168,3.726,3.744,1.386.432,2.736.792,2.736,1.89a1.811,1.811,0,0,1-2,1.764,3.26,3.26,0,0,1-2.88-1.782L.054,14.822A6.519,6.519,0,0,0,5.184,17.18ZM20.5,6.47h-2.43v5.778c0,1.854-.99,2.862-2.34,2.862-1.53,0-2.25-1.008-2.25-2.646V6.47H11.016v6.246c0,2.862,1.53,4.5,4.05,4.5a3.612,3.612,0,0,0,3.024-1.422V17H20.5ZM22.176,17h2.43V11.222c0-1.854,1.08-2.862,2.466-2.862,1.584,0,2.376,1.008,2.376,2.646V17h2.466V10.754c0-2.862-1.53-4.5-4.176-4.5a3.85,3.85,0,0,0-3.15,1.512V6.47H22.176Zm14.6,0h2.448V6.2H42.75V3.86H33.264V6.2h3.51Zm10.386.216a5.264,5.264,0,0,0,4.914-2.844l-2-1.152a3.067,3.067,0,0,1-2.916,1.854,3.116,3.116,0,0,1-3.24-2.484h8.568v-.918A5.259,5.259,0,0,0,47.07,6.254,5.432,5.432,0,0,0,41.6,11.762,5.345,5.345,0,0,0,47.16,17.216ZM47.07,8.4a2.782,2.782,0,0,1,2.952,2.16H44.046A3.1,3.1,0,0,1,47.07,8.4Zm11.808,8.82A5.313,5.313,0,0,0,63.936,13.9l-2.178-.936a3.017,3.017,0,0,1-2.844,1.962,3.123,3.123,0,0,1-3.132-3.186A3.113,3.113,0,0,1,58.9,8.54a3,3,0,0,1,2.826,1.89L63.9,9.512a5.343,5.343,0,0,0-5.022-3.258,5.481,5.481,0,0,0,0,10.962ZM65.034,17h2.448V11.222c0-1.836,1.08-2.862,2.448-2.862,1.584,0,2.376,1.008,2.376,2.664V17H74.79V10.754c0-2.862-1.53-4.5-4.176-4.5a3.873,3.873,0,0,0-3.15,1.476V3.68h-2.43Zm20.394.18a4.213,4.213,0,0,0,4.536-4.086c0-2.52-2.016-3.312-3.8-3.888-1.44-.486-2.682-.792-2.682-1.854,0-.846.63-1.494,1.836-1.494A2.675,2.675,0,0,1,87.7,7.118l2.016-1.53A5.645,5.645,0,0,0,85.3,3.68c-2.52,0-4.356,1.656-4.356,3.762,0,2.5,1.944,3.168,3.726,3.744,1.386.432,2.736.792,2.736,1.89a1.811,1.811,0,0,1-2,1.764,3.26,3.26,0,0,1-2.88-1.782L80.3,14.822A6.519,6.519,0,0,0,85.428,17.18Zm11.214.036a5.481,5.481,0,1,0-5.454-5.472A5.454,5.454,0,0,0,96.642,17.216Zm0-2.286a3.1,3.1,0,0,1-3.06-3.186,3.063,3.063,0,1,1,6.12,0A3.109,3.109,0,0,1,96.642,14.93Zm6.7,2.07h2.448V3.68h-2.448ZM116.856,6.47h-2.43v5.778c0,1.854-.99,2.862-2.34,2.862-1.53,0-2.25-1.008-2.25-2.646V6.47H107.37v6.246c0,2.862,1.53,4.5,4.05,4.5a3.612,3.612,0,0,0,3.024-1.422V17h2.412Zm1.206,2.178h1.8v3.96c0,3.348.99,4.392,4.248,4.392h.342V14.714c-1.872,0-2.142-.288-2.142-2.124V8.648h2.142V6.47H122.31V3.194l-2.448,1.674v1.6h-1.8ZM125.8,17h2.448V6.47H125.8ZM125.5,3.9a1.4,1.4,0,0,0,1.53,1.512,1.413,1.413,0,0,0,1.53-1.512,1.53,1.53,0,1,0-3.06,0Zm9.45,13.32a5.481,5.481,0,1,0-5.454-5.472A5.454,5.454,0,0,0,134.946,17.216Zm0-2.286a3.1,3.1,0,0,1-3.06-3.186,3.063,3.063,0,1,1,6.12,0A3.109,3.109,0,0,1,134.946,14.93Zm6.7,2.07h2.43V11.222c0-1.854,1.08-2.862,2.466-2.862,1.584,0,2.376,1.008,2.376,2.646V17h2.466V10.754c0-2.862-1.53-4.5-4.176-4.5a3.85,3.85,0,0,0-3.15,1.512V6.47h-2.412Zm15.282.216c3.006,0,4.32-1.962,4.32-3.438,0-2.214-1.98-2.826-3.708-3.168-1.584-.342-2.412-.522-2.412-1.224,0-.594.54-1.134,1.692-1.134a2.493,2.493,0,0,1,2.232,1.206l2.07-1.044a4.6,4.6,0,0,0-4.3-2.178c-2.5,0-4.14,1.53-4.14,3.222,0,2.214,1.89,2.79,3.69,3.168,1.3.288,2.466.432,2.466,1.206,0,.7-.594,1.278-1.8,1.278a2.7,2.7,0,0,1-2.538-1.53l-2.25,1.08C153.09,16.316,154.566,17.216,156.924,17.216Z" transform="translate(-0.054)" fill="#48556d"/>
      <path id="Path_21273" data-name="Path 21273" d="M2.347,11.273H3.811l1.623-6,1.623,6H8.49l2.186-8.511H9.222L7.768,8.7,6.156,2.761H4.734L3.111,8.719,1.647,2.761H.14Zm9.336,0h1.443V7.53c0-1.189.637-1.854,1.443-1.854.934,0,1.4.653,1.4,1.726v3.871h1.464V7.227c0-1.854-.9-2.915-2.461-2.915a2.211,2.211,0,0,0-1.857.956V2.645H11.683Zm10.068.14a3.074,3.074,0,0,0,2.9-1.842L23.47,8.824a1.807,1.807,0,0,1-1.719,1.2,1.879,1.879,0,0,1-1.91-1.609h5.05V7.821A3.264,3.264,0,0,0,21.7,4.312,3.374,3.374,0,0,0,18.473,7.88,3.313,3.313,0,0,0,21.751,11.413ZM21.7,5.7a1.667,1.667,0,0,1,1.74,1.4H19.916A1.849,1.849,0,0,1,21.7,5.7Zm4.254,5.573h1.432V7.53c0-1.2.637-1.854,1.453-1.854.934,0,1.4.653,1.4,1.714v3.883h1.453V7.227c0-1.854-.9-2.915-2.461-2.915a2.2,2.2,0,0,0-1.857.979V4.452H25.953Zm10.907,3.148h1.453l3.7-9.969H40.509L38.875,9.046,37.146,4.452H35.618l2.546,6.483Zm8.572-3.008a3.386,3.386,0,0,0,3.215-3.544,3.231,3.231,0,1,0-6.429,0A3.379,3.379,0,0,0,45.432,11.413Zm0-1.481a1.93,1.93,0,0,1-1.8-2.064,1.821,1.821,0,1,1,3.607,0A1.937,1.937,0,0,1,45.432,9.932Zm9.856-5.48H53.856V8.195c0,1.2-.584,1.854-1.379,1.854-.9,0-1.326-.653-1.326-1.714V4.452H49.7V8.5c0,1.854.9,2.915,2.387,2.915a2.065,2.065,0,0,0,1.782-.921v.781h1.422Zm4.276,6.821H61V7.53c0-1.2.637-1.854,1.453-1.854.934,0,1.4.653,1.4,1.714v3.883H65.3V7.227c0-1.854-.9-2.915-2.461-2.915a2.2,2.2,0,0,0-1.857.979V4.452H59.563Zm10.068.14a3.074,3.074,0,0,0,2.9-1.842l-1.178-.746a1.807,1.807,0,0,1-1.719,1.2,1.879,1.879,0,0,1-1.91-1.609h5.05V7.821a3.264,3.264,0,0,0-3.193-3.509A3.374,3.374,0,0,0,66.354,7.88,3.313,3.313,0,0,0,69.632,11.413ZM69.579,5.7a1.667,1.667,0,0,1,1.74,1.4H67.8A1.849,1.849,0,0,1,69.579,5.7Zm7.331,5.713a3.074,3.074,0,0,0,2.9-1.842l-1.178-.746a1.807,1.807,0,0,1-1.719,1.2A1.879,1.879,0,0,1,75,8.416h5.05V7.821a3.264,3.264,0,0,0-3.193-3.509A3.374,3.374,0,0,0,73.632,7.88,3.313,3.313,0,0,0,76.91,11.413ZM76.857,5.7A1.667,1.667,0,0,1,78.6,7.1H75.075A1.849,1.849,0,0,1,76.857,5.7Zm7.108,5.713a2.458,2.458,0,0,0,2.016-1.026v.886h1.432V2.645H85.97V5.256a2.469,2.469,0,0,0-1.984-.944A3.241,3.241,0,0,0,80.91,7.868,3.274,3.274,0,0,0,83.965,11.413ZM84.2,9.967a1.985,1.985,0,0,1-1.878-2.122,1.88,1.88,0,1,1,3.735,0A1.969,1.969,0,0,1,84.2,9.967Zm7.257-4.1h1.061V8.428c0,2.169.584,2.845,2.5,2.845h.2V9.792c-1.1,0-1.263-.187-1.263-1.376V5.863h1.263V4.452H93.959V2.33L92.516,3.414V4.452H91.455Zm4.88,5.41h1.443V7.53c0-1.189.637-1.854,1.443-1.854.934,0,1.4.653,1.4,1.726v3.871h1.464V7.227c0-1.854-.9-2.915-2.461-2.915a2.211,2.211,0,0,0-1.857.956V2.645H96.336Zm10.068.14a3.074,3.074,0,0,0,2.9-1.842l-1.178-.746a1.807,1.807,0,0,1-1.719,1.2,1.879,1.879,0,0,1-1.91-1.609h5.05V7.821a3.264,3.264,0,0,0-3.193-3.509,3.374,3.374,0,0,0-3.225,3.568A3.313,3.313,0,0,0,106.4,11.413ZM106.351,5.7a1.667,1.667,0,0,1,1.74,1.4h-3.522A1.849,1.849,0,0,1,106.351,5.7Zm7.278,5.573h1.432V7.635c0-1.178.435-1.667,1.273-1.667a1.339,1.339,0,0,1,.859.268l.541-1.492a2.032,2.032,0,0,0-1.093-.291,1.582,1.582,0,0,0-1.591,1.014V4.452h-1.422Zm7.862.14a3.074,3.074,0,0,0,2.9-1.842l-1.178-.746a1.807,1.807,0,0,1-1.719,1.2,1.879,1.879,0,0,1-1.91-1.609h5.05V7.821a3.264,3.264,0,0,0-3.193-3.509,3.374,3.374,0,0,0-3.225,3.568A3.313,3.313,0,0,0,121.491,11.413ZM121.438,5.7a1.667,1.667,0,0,1,1.74,1.4h-3.522A1.849,1.849,0,0,1,121.438,5.7Zm6.588,5.713a2.342,2.342,0,0,0,2.546-2.227c0-1.434-1.167-1.83-2.186-2.052-.934-.222-1.422-.338-1.422-.793,0-.385.318-.735,1-.735a1.444,1.444,0,0,1,1.316.781l1.22-.676A2.655,2.655,0,0,0,127.963,4.3a2.242,2.242,0,0,0-2.44,2.087c0,1.434,1.114,1.807,2.175,2.052.764.187,1.453.28,1.453.781,0,.455-.35.828-1.061.828a1.579,1.579,0,0,1-1.5-.991l-1.326.7A2.757,2.757,0,0,0,128.026,11.413Zm9.124-6.961h-1.432V8.195c0,1.2-.584,1.854-1.379,1.854-.9,0-1.326-.653-1.326-1.714V4.452h-1.454V8.5c0,1.854.9,2.915,2.387,2.915a2.065,2.065,0,0,0,1.782-.921v.781h1.422Zm1.252,6.821h1.443V2.645H138.4Zm2.472-5.41h1.061V8.428c0,2.169.584,2.845,2.5,2.845h.2V9.792c-1.1,0-1.263-.187-1.263-1.376V5.863h1.263V4.452h-1.263V2.33l-1.443,1.084V4.452h-1.061Zm7.321,5.55a2.342,2.342,0,0,0,2.546-2.227c0-1.434-1.167-1.83-2.186-2.052-.934-.222-1.422-.338-1.422-.793,0-.385.318-.735,1-.735a1.444,1.444,0,0,1,1.316.781l1.22-.676A2.655,2.655,0,0,0,148.131,4.3a2.242,2.242,0,0,0-2.44,2.087c0,1.434,1.114,1.807,2.175,2.052.764.187,1.453.28,1.453.781,0,.455-.35.828-1.061.828a1.579,1.579,0,0,1-1.5-.991l-1.326.7A2.757,2.757,0,0,0,148.195,11.413Z" transform="translate(-0.14 24.279)" fill="#8e8d8f"/>
    </g>
    <g id="Stic_Logo_icon" data-name="Stic Logo icon" transform="translate(-8.146 3.23)">
      <g id="Group_22905" data-name="Group 22905" transform="translate(0.71 0.77)">
        <g id="Group_22904" data-name="Group 22904" transform="translate(0)" clip-path="url(#clip-path)">
          <rect id="Rectangle_975" data-name="Rectangle 975" width="26.387" height="15.096" transform="translate(-0.279 -0.279)" fill="#48e8b8"/>
        </g>
      </g>
      <g id="Group_22907" data-name="Group 22907" transform="translate(0.71 4.094)">
        <g id="Group_22906" data-name="Group 22906" transform="translate(0)" clip-path="url(#clip-path-2)">
          <rect id="Rectangle_976" data-name="Rectangle 976" width="26.387" height="11.644" transform="translate(-0.279 -0.279)" fill="#2ec3c1"/>
        </g>
      </g>
      <g id="Group_22909" data-name="Group 22909" transform="translate(0.71 7.919)">
        <g id="Group_22908" data-name="Group 22908" transform="translate(0)" clip-path="url(#clip-path-3)">
          <rect id="Rectangle_977" data-name="Rectangle 977" width="26.387" height="7.819" transform="translate(-0.279 -0.279)" fill="#1aa7c5"/>
        </g>
      </g>
      <g id="Group_22911" data-name="Group 22911" transform="translate(0.71 8.196)">
        <g id="Group_22910" data-name="Group 22910" transform="translate(0)" clip-path="url(#clip-path-4)">
          <rect id="Rectangle_978" data-name="Rectangle 978" width="26.387" height="7.669" transform="translate(-0.279 -0.279)" fill="#028da4"/>
        </g>
      </g>
      <g id="Group_22913" data-name="Group 22913" transform="translate(12.207 24.984)">
        <g id="Group_22912" data-name="Group 22912" clip-path="url(#clip-path-5)">
          <rect id="Rectangle_979" data-name="Rectangle 979" width="26.387" height="14.969" transform="translate(-0.279 -0.279)" fill="#de69f8"/>
        </g>
      </g>
      <g id="Group_22915" data-name="Group 22915" transform="translate(12.207 24.984)">
        <g id="Group_22914" data-name="Group 22914" clip-path="url(#clip-path-6)">
          <rect id="Rectangle_980" data-name="Rectangle 980" width="26.387" height="11.645" transform="translate(-0.279 -0.279)" fill="#a725b9"/>
        </g>
      </g>
      <g id="Group_22917" data-name="Group 22917" transform="translate(12.207 24.984)">
        <g id="Group_22916" data-name="Group 22916" clip-path="url(#clip-path-7)">
          <rect id="Rectangle_981" data-name="Rectangle 981" width="26.387" height="7.819" transform="translate(-0.279 -0.279)" fill="#7c0c9f"/>
        </g>
      </g>
      <g id="Group_22919" data-name="Group 22919" transform="translate(12.207 24.984)">
        <g id="Group_22918" data-name="Group 22918" clip-path="url(#clip-path-8)">
          <rect id="Rectangle_982" data-name="Rectangle 982" width="26.387" height="7.543" transform="translate(-0.279 -0.279)" fill="#4d0185"/>
        </g>
      </g>
      <g id="Group_22921" data-name="Group 22921" transform="translate(0.71 8.196)">
        <g id="Group_22920" data-name="Group 22920" transform="translate(0)" clip-path="url(#clip-path-9)">
          <rect id="Rectangle_983" data-name="Rectangle 983" width="37.884" height="24.331" transform="translate(-0.279 -0.279)" fill="#f46760"/>
        </g>
      </g>
      <g id="Group_22923" data-name="Group 22923" transform="translate(0.71 8.196)">
        <g id="Group_22922" data-name="Group 22922" transform="translate(0)" clip-path="url(#clip-path-10)">
          <rect id="Rectangle_984" data-name="Rectangle 984" width="37.884" height="24.331" transform="translate(-0.279 -0.279)" fill="#fd815d"/>
        </g>
      </g>
      <g id="Group_22925" data-name="Group 22925" transform="translate(0.71 8.196)">
        <g id="Group_22924" data-name="Group 22924" transform="translate(0)" clip-path="url(#clip-path-11)">
          <rect id="Rectangle_985" data-name="Rectangle 985" width="37.884" height="24.331" transform="translate(-0.279 -0.279)" fill="#fca949"/>
        </g>
      </g>
      <g id="Group_22927" data-name="Group 22927" transform="translate(0.71 8.196)">
        <g id="Group_22926" data-name="Group 22926" transform="translate(0)" clip-path="url(#clip-path-12)">
          <rect id="Rectangle_986" data-name="Rectangle 986" width="37.884" height="24.331" transform="translate(-0.279 -0.279)" fill="#fad084"/>
        </g>
      </g>
    </g>
  </g>
</svg>
